<svg viewBox="0 0 282.53 61.37" xmlns="http://www.w3.org/2000/svg"><g fill="#381d82"><path d="m30.33 60.42v-26.42c0-7-5.07-11.89-11-11.89s-11 4.91-11 11.89v26.42h-8.33v-26.42c0-11.86 8.28-19.78 19.31-19.78s19.32 7.92 19.32 19.78v26.42z"/><path d="m83.41 60.42v-25.42c0-8.48-7.16-12.82-14.7-12.82-9.14 0-14.9 7.27-14.9 15.84 0 8.41 6.12 15.47 14.79 15.47 4.73 0 8.59-2.64 11.42-6.23v9.74c-3.31 2.45-6.5 4.34-12.26 4.34-13 0-22.24-10.74-22.24-24 0-12.91 8.87-23.1 23.38-23.1 13.95 0 22.89 8.49 22.89 21.51v24.67z"/><path d="m114.61 60.42c-8.49 0-13.39-5.64-13.39-14.61v-42h8.3v11.37h16.21v7.91h-16.21v23.76a5.65 5.65 0 0 0 5.66 5.66h10.55v7.91z"/><path d="m154.37 61.37c-11 0-19.32-7.92-19.32-19.8v-26.39h8.28v26.39c0 7 5.1 11.88 11 11.88s11-4.91 11-11.88v-26.39h8.29v26.39c0 11.88-8.29 19.8-19.32 19.8"/><path d="m205.18 22.14c-8 0-12.73 4.9-12.73 17.17v21.11h-8.3v-45.24h7.91v5.17h.19c2.83-4.43 6.69-6.13 12.26-6.13h1.9v7.92z"/><path d="m219.29 10a4.84 4.84 0 0 1 -5-5 5 5 0 1 1 10 0 4.85 4.85 0 0 1 -5 5m-4.14 5.2h8.29v45.22h-8.29z"/><path d="m258.85 61.37a23.19 23.19 0 0 1 -23.45-23.58 23.18 23.18 0 0 1 23.45-23.57c10.58 0 17.64 5.56 22 14.33l-30.62 17-3.39-6.59 22.34-12.45c-2.83-2.82-5.19-4.34-10.29-4.34-8.57 0-14.78 6.41-14.78 15.65s6.21 15.66 14.78 15.66c9.83 0 13.5-5.84 15.19-14.14l8.49 1c-.95 12-10.66 21-23.68 21"/></g></svg>